<svg width="28" height="26" viewBox="0 0 28 26" fill="none" xmlns="http://www.w3.org/2000/svg">
<g filter="url(#filter0_d)">
<path d="M21.881 14.166C19.737 13.431 17.625 12.5 16.674 11.776C16.017 11.275 15.904 10.158 16.157 9.361C17.275 8.458 18.021 6.884 18.021 5.083C18.021 2.276 16.221 0 14 0C11.779 0 9.97901 2.276 9.97901 5.083C9.97901 6.884 10.725 8.457 11.842 9.36C12.095 10.158 11.983 11.275 11.325 11.776C10.375 12.5 8.26201 13.43 6.11801 14.166C3.97401 14.902 4.00001 18 4.00001 18H24C24 18 24.025 14.901 21.881 14.166Z" fill="#C5C5C5"/>
</g>
<defs>
<filter id="filter0_d" x="0" y="0" width="28" height="26" filterUnits="userSpaceOnUse" color-interpolation-filters="sRGB">
<feFlood flood-opacity="0" result="BackgroundImageFix"/>
<feColorMatrix in="SourceAlpha" type="matrix" values="0 0 0 0 0 0 0 0 0 0 0 0 0 0 0 0 0 0 127 0"/>
<feOffset dy="4"/>
<feGaussianBlur stdDeviation="2"/>
<feColorMatrix type="matrix" values="0 0 0 0 0 0 0 0 0 0 0 0 0 0 0 0 0 0 0.25 0"/>
<feBlend mode="normal" in2="BackgroundImageFix" result="effect1_dropShadow"/>
<feBlend mode="normal" in="SourceGraphic" in2="effect1_dropShadow" result="shape"/>
</filter>
</defs>
</svg>
